<svg width="34" height="34" viewBox="0 0 34 34" fill="none" xmlns="http://www.w3.org/2000/svg">
<path d="M21.8771 13.3775L18.4038 16.9742L22.0005 20.4475C22.1913 20.6317 22.301 20.8842 22.3057 21.1494C22.3103 21.4145 22.2094 21.6707 22.0252 21.8615C21.8409 22.0522 21.5885 22.162 21.3233 22.1667C21.0581 22.1713 20.8019 22.0704 20.6112 21.8862L17.0145 18.4129L13.5412 22.0096C13.3569 22.2003 13.1045 22.3101 12.8393 22.3147C12.5741 22.3194 12.318 22.2185 12.1272 22.0342C11.9364 21.85 11.8266 21.5975 11.822 21.3324C11.8174 21.0672 11.9183 20.811 12.1025 20.6202L15.5758 17.0235L11.9791 13.5503C11.7883 13.366 11.6785 13.1135 11.6739 12.8484C11.6693 12.5832 11.7702 12.327 11.9544 12.1363C12.1386 11.9455 12.3911 11.8357 12.6563 11.8311C12.9215 11.8264 13.1776 11.9273 13.3684 12.1116L16.9651 15.5849L20.4384 11.9882C20.6226 11.7974 20.8751 11.6876 21.1403 11.683C21.4055 11.6783 21.6616 11.7792 21.8524 11.9635C22.0432 12.1477 22.153 12.4002 22.1576 12.6654C22.1622 12.9305 22.0613 13.1867 21.8771 13.3775Z" fill="black"/>
</svg>
