<svg viewBox="0 0 142 82" fill="none" xmlns="http://www.w3.org/2000/svg">
<path d="M31.6352 29.7C31.0352 29.6333 30.5352 29.4833 30.1352 29.25C29.7685 28.9833 29.3852 28.6167 28.9852 28.15C28.7852 27.95 28.6185 27.7167 28.4852 27.45C28.3518 27.15 28.2185 26.8833 28.0852 26.65C28.0852 26.5833 28.0685 26.5333 28.0352 26.5C28.0018 26.4333 27.9852 26.3667 27.9852 26.3V25.35V24.4C27.9852 23.8667 28.1518 23.3833 28.4852 22.95C28.8518 22.5167 29.2018 22.1167 29.5352 21.75V21.65C29.2685 21.45 29.0018 21.2333 28.7352 21C28.5018 20.7667 28.2518 20.5333 27.9852 20.3C27.7852 20.1 27.6352 19.8667 27.5352 19.6C27.4352 19.3 27.3852 19.0167 27.3852 18.75C27.3852 18.0833 27.5018 17.4833 27.7352 16.95C28.0018 16.3833 28.3685 15.8667 28.8352 15.4L28.7352 15.3C27.8685 14.7 27.1852 14.0167 26.6852 13.25C26.1852 12.4833 25.9352 11.55 25.9352 10.45C25.9352 9.31667 26.2352 8.33333 26.8352 7.5C27.4352 6.66666 28.2018 5.93333 29.1352 5.3C29.1685 3.86667 29.4685 2.73333 30.0352 1.9C30.6018 1.06667 31.6685 0.649999 33.2352 0.649999C33.8352 0.649999 34.4518 0.733333 35.0852 0.899999C35.7518 1.06667 36.3185 1.33333 36.7852 1.7C36.8185 1.7 36.8852 1.75 36.9852 1.85L37.0852 1.95C37.1852 2.01667 37.2685 2.13333 37.3352 2.3C37.4352 2.43333 37.5185 2.5 37.5852 2.5H37.6852C37.7185 2.5 37.7852 2.46667 37.8852 2.4C38.0185 2.3 38.1018 2.25 38.1352 2.25C38.5352 2.08333 38.9518 2 39.3852 2C39.8185 1.96666 40.2685 1.95 40.7352 1.95H41.5852C42.3852 1.95 43.0352 2.1 43.5352 2.4C44.0685 2.7 44.5018 3.1 44.8352 3.6C45.1685 4.06667 45.4018 4.61667 45.5352 5.25C45.7018 5.88333 45.7852 6.55 45.7852 7.25H47.6352C47.9018 7.25 48.1352 7.28333 48.3352 7.35C48.5685 7.41667 48.8185 7.48333 49.0852 7.55C49.3518 7.68333 49.6352 7.81667 49.9352 7.95C50.2352 8.08333 50.5185 8.25 50.7852 8.45C51.3185 8.91667 51.7685 9.53333 52.1352 10.3C52.5352 11.0667 52.7352 11.8 52.7352 12.5C52.7352 13.2667 52.6018 13.9667 52.3352 14.6C52.0685 15.2333 51.6518 15.7833 51.0852 16.25C51.4518 16.45 51.8185 16.7833 52.1852 17.25C52.5852 17.6833 52.8185 18.1333 52.8852 18.6V19.25C52.8852 19.7833 52.7852 20.3667 52.5852 21C52.3852 21.6333 52.0518 22.1 51.5852 22.4C51.4185 22.5 51.2352 22.5833 51.0352 22.65C50.8685 22.7167 50.7018 22.7833 50.5352 22.85C50.6685 23.1167 50.7518 23.4 50.7852 23.7C50.8185 24 50.8352 24.3167 50.8352 24.65V25.05C50.8352 25.3833 50.7685 25.6833 50.6352 25.95C50.5018 26.2167 50.3352 26.4667 50.1352 26.7C49.7685 27.2 49.3685 27.65 48.9352 28.05C48.5352 28.45 48.0518 28.7833 47.4852 29.05C47.4518 29.0833 47.4185 29.1 47.3852 29.1C47.3518 29.1333 47.3018 29.15 47.2352 29.15C47.2018 29.15 47.1685 29.1667 47.1352 29.2C47.1018 29.2 47.0685 29.2 47.0352 29.2H46.9352H45.3852C45.1185 30.2667 44.5352 31.1667 43.6352 31.9C42.7352 32.6333 41.7352 33 40.6352 33C40.1018 33 39.5852 32.9167 39.0852 32.75C38.6185 32.5833 38.2185 32.2833 37.8852 31.85C37.5852 32.2833 37.2185 32.5833 36.7852 32.75C36.3852 32.9167 35.9518 33 35.4852 33H34.7852C34.0185 32.9 33.3018 32.55 32.6352 31.95C31.9685 31.35 31.6352 30.6 31.6352 29.7ZM39.8852 18.45C39.9518 18.45 40.0685 18.45 40.2352 18.45C40.4352 18.45 40.5685 18.4167 40.6352 18.35C41.1018 18.15 41.4018 17.8333 41.5352 17.4C41.7018 16.9667 41.7852 16.5833 41.7852 16.25C41.7852 15.85 41.6185 15.5667 41.2852 15.4C40.9518 15.2333 40.5685 15.15 40.1352 15.15H39.8852V18.45ZM94.7063 27.65C94.3729 27.7167 94.0896 27.7167 93.8563 27.65C93.6229 27.5833 93.3729 27.5167 93.1063 27.45C92.3396 27.1833 91.7563 26.8333 91.3563 26.4C90.9896 25.9333 90.6563 25.3333 90.3563 24.6C90.3563 24.5667 90.3229 24.4667 90.2563 24.3C90.2229 24.1 90.1896 23.9667 90.1563 23.9C90.1563 23.8667 90.1396 23.85 90.1063 23.85C90.1063 23.8167 90.1063 23.7667 90.1063 23.7C90.0729 23.6667 90.0563 23.6167 90.0563 23.55V21.55C90.0563 21.5167 90.0729 21.4667 90.1063 21.4C90.1063 21.3333 90.1063 21.2833 90.1063 21.25C90.1396 21.2167 90.1563 21.1833 90.1563 21.15C90.1563 21.0833 90.1729 20.9833 90.2062 20.85C90.2729 20.7167 90.3063 20.6333 90.3063 20.6V20.5C89.7729 20.1 89.3896 19.6167 89.1563 19.05C88.9563 18.4833 88.8563 17.8667 88.8563 17.2C88.8563 16.8333 88.8729 16.4833 88.9063 16.15C88.9729 15.7833 89.1229 15.4333 89.3563 15.1C89.5229 14.7667 89.7063 14.4667 89.9063 14.2C90.1396 13.9 90.3563 13.6167 90.5563 13.35V13.25C90.3563 12.8833 90.1729 12.5 90.0063 12.1C89.8396 11.6667 89.7563 11.25 89.7563 10.85V10.6C89.8229 10 89.9396 9.5 90.1063 9.1C90.3063 8.66667 90.6729 8.28333 91.2063 7.95L91.8063 7.65C91.8396 7.65 91.8729 7.63333 91.9063 7.6C91.9396 7.6 91.9563 7.6 91.9563 7.6C91.9896 7.56667 92.0229 7.55 92.0563 7.55C92.1229 7.55 92.1896 7.53333 92.2563 7.5C92.2896 7.5 92.3396 7.48333 92.4063 7.45H94.2562C94.2562 7.15 94.2729 6.81667 94.3063 6.45C94.3396 6.08333 94.4229 5.73333 94.5563 5.4C94.9563 4.53333 95.5229 3.9 96.2563 3.5C96.9896 3.1 97.7896 2.9 98.6563 2.9C99.1229 2.9 99.5229 2.95 99.8563 3.05C100.223 3.15 100.606 3.28333 101.006 3.45H101.156C101.556 2.85 102.056 2.41667 102.656 2.15C103.256 1.88333 103.89 1.65 104.556 1.45C105.023 1.28333 105.49 1.18333 105.956 1.15C106.423 1.08333 106.923 1.05 107.456 1.05C107.69 1.05 107.906 1.05 108.106 1.05C108.306 1.05 108.54 1.06666 108.806 1.1C109.006 1.16667 109.24 1.23333 109.506 1.3C109.773 1.36667 109.99 1.46667 110.156 1.6C110.223 1.6 110.273 1.65 110.306 1.75C110.373 1.81667 110.44 1.85 110.506 1.85C111.306 2.61667 111.89 3.35 112.256 4.05C112.623 4.71667 112.806 5.61667 112.806 6.75C112.806 6.95 112.79 7.18333 112.756 7.45C112.756 7.68333 112.723 7.93333 112.656 8.2C112.523 8.53333 112.373 8.8 112.206 9C112.073 9.2 111.873 9.45 111.606 9.75C110.573 10.8167 109.24 11.35 107.606 11.35C107.34 11.35 107.106 11.3333 106.906 11.3C106.706 11.2333 106.473 11.1667 106.206 11.1C106.173 11.1 106.04 11.05 105.806 10.95C105.606 10.8167 105.473 10.75 105.406 10.75H105.356C105.123 11.5833 104.656 12.1833 103.956 12.55C103.89 12.6167 103.806 12.6667 103.706 12.7C103.64 12.7 103.556 12.7333 103.456 12.8C103.323 12.8667 103.206 12.9167 103.106 12.95H101.556V15.1C101.523 15.1667 101.506 15.2167 101.506 15.25V15.45C101.34 15.8833 101.106 16.2833 100.806 16.65C100.506 17.0167 100.19 17.3667 99.8563 17.7C100.99 18.1667 101.74 18.7833 102.106 19.55C102.473 20.3167 102.723 21.2833 102.856 22.45H102.906C103.506 22.35 104.106 22.3 104.706 22.3C104.84 22.3 104.99 22.3 105.156 22.3C105.323 22.3 105.49 22.3167 105.656 22.35C105.723 22.35 105.823 22.4 105.956 22.5C106.123 22.5667 106.24 22.6333 106.306 22.7C106.373 22.7 106.456 22.75 106.556 22.85C106.656 22.95 106.74 23 106.806 23H106.856L107.206 22.75C107.54 22.55 107.873 22.4333 108.206 22.4C108.573 22.3333 108.94 22.3 109.306 22.3C109.706 22.3 110.173 22.3 110.706 22.3C111.24 22.3 111.706 22.4 112.106 22.6C113.04 23 113.69 23.6833 114.056 24.65C114.456 25.6167 114.656 26.5667 114.656 27.5C114.656 27.9667 114.606 28.3833 114.506 28.75C114.406 29.1167 114.223 29.4833 113.956 29.85C113.49 30.4167 113.056 30.8833 112.656 31.25C112.256 31.6167 111.69 31.8667 110.956 32C110.756 32.0667 110.456 32.1333 110.056 32.2C109.656 32.2333 109.423 32.25 109.356 32.25H107.756C107.69 32.25 107.606 32.2333 107.506 32.2C107.406 32.1333 107.323 32.1 107.256 32.1L106.956 31.95H106.856C106.823 31.95 106.673 32.1 106.406 32.4C106.14 32.6667 105.94 32.8333 105.806 32.9C105.24 33.2333 104.64 33.45 104.006 33.55C103.373 33.65 102.74 33.7 102.106 33.7H101.056C100.69 33.6333 100.34 33.55 100.006 33.45C99.7063 33.35 99.3896 33.2167 99.0563 33.05L97.9563 32.5C97.8896 32.5 97.7729 32.4167 97.6063 32.25C96.5063 31.2833 95.7063 30.1833 95.2063 28.95C95.1396 28.75 95.0729 28.5333 95.0063 28.3C94.9396 28.0667 94.8396 27.85 94.7063 27.65ZM9.4377 77.65C9.4377 78.6833 9.15436 79.6167 8.5877 80.45C8.02103 81.2833 7.0877 81.7 5.7877 81.7C3.8877 81.6333 2.60436 81.25 1.9377 80.55C1.27103 79.85 0.887695 79.0167 0.787695 78.05C0.687695 77.3833 0.721029 76.7667 0.887695 76.2C1.05436 75.6333 1.40436 75.0833 1.9377 74.55C1.8377 74.4833 1.6877 74.3667 1.4877 74.2C1.32103 74 1.22103 73.8667 1.1877 73.8C0.921029 73.5333 0.687695 73.25 0.487695 72.95C0.321029 72.6167 0.237695 72.2667 0.237695 71.9C0.271029 71.2667 0.437695 70.6833 0.737696 70.15C1.07103 69.6167 1.4877 69.15 1.9877 68.75V68.65C1.7877 68.3167 1.60436 67.9833 1.4377 67.65C1.30436 67.2833 1.2377 66.8833 1.2377 66.45C1.27103 65.95 1.42103 65.5167 1.6877 65.15C1.9877 64.75 2.30436 64.3833 2.6377 64.05L2.5877 63.9C2.52103 63.8667 2.42103 63.8167 2.2877 63.75C2.15436 63.6833 2.07103 63.6167 2.0377 63.55C1.97103 63.4833 1.8377 63.3667 1.6377 63.2C1.4377 63 1.30436 62.85 1.2377 62.75C1.07103 62.5833 0.971029 62.3833 0.937696 62.15C0.904362 61.8833 0.887695 61.6167 0.887695 61.35C0.921029 60.4833 1.10436 59.8 1.4377 59.3C1.80436 58.7667 2.30436 58.2333 2.9377 57.7C2.00436 56.5 1.50436 55.4333 1.4377 54.5C1.40436 53.5333 1.62103 52.7167 2.0877 52.05C2.55436 51.35 3.17103 50.8167 3.9377 50.45C4.7377 50.05 5.50436 49.8167 6.2377 49.75C7.0377 49.6833 7.82103 49.7 8.5877 49.8C9.3877 49.9 10.1044 50.1167 10.7377 50.45C11.4044 50.75 11.9544 51.2 12.3877 51.8C12.821 52.3667 13.1044 53.0833 13.2377 53.95C13.671 53.6167 14.171 53.4167 14.7377 53.35C15.3377 53.2833 15.921 53.3333 16.4877 53.5C17.0877 53.6667 17.621 53.95 18.0877 54.35C18.5544 54.75 18.8877 55.2333 19.0877 55.8C19.1544 55.5667 19.2544 55.3333 19.3877 55.1C19.521 54.8333 19.671 54.6167 19.8377 54.45C20.3044 53.95 20.9044 53.55 21.6377 53.25C22.4044 52.95 23.1377 52.7667 23.8377 52.7C24.2044 51.3667 25.0877 50.45 26.4877 49.95C27.921 49.4167 29.6544 49.2333 31.6877 49.4C32.7877 49.5 33.7044 49.8 34.4377 50.3C35.171 50.7667 35.7544 51.3833 36.1877 52.15C36.621 52.8833 36.921 53.7 37.0877 54.6C37.2544 55.4667 37.2877 56.35 37.1877 57.25C37.1877 57.2833 37.171 57.35 37.1377 57.45C37.1377 57.5167 37.1377 57.5667 37.1377 57.6V57.85C37.671 58.0167 38.221 58.4167 38.7877 59.05C39.3544 59.6833 39.771 60.4667 40.0377 61.4C40.3044 62.3 40.371 63.3167 40.2377 64.45C40.1044 65.55 39.621 66.6667 38.7877 67.8C39.221 68.1 39.5544 68.45 39.7877 68.85C40.021 69.25 40.1877 69.6333 40.2877 70C40.3877 70.3667 40.4377 70.7167 40.4377 71.05C40.471 71.35 40.4877 71.55 40.4877 71.65C40.4544 72.2833 40.271 72.7833 39.9377 73.15C39.6377 73.5167 39.221 73.8833 38.6877 74.25C38.8544 74.85 39.0044 75.3667 39.1377 75.8C39.271 76.2 39.2877 76.7833 39.1877 77.55C39.0544 78.3833 38.6544 79.1667 37.9877 79.9C37.321 80.6 36.1877 80.9833 34.5877 81.05C33.421 81.0833 32.4377 80.95 31.6377 80.65C30.871 80.3167 30.2377 79.9 29.7377 79.4C29.271 78.8667 28.9377 78.2667 28.7377 77.6C28.5377 76.9333 28.4544 76.25 28.4877 75.55C28.4877 75.2167 28.5377 74.8333 28.6377 74.4C28.7377 73.9667 28.871 73.55 29.0377 73.15C29.2044 72.75 29.4044 72.3833 29.6377 72.05C29.9044 71.7167 30.1877 71.4667 30.4877 71.3C30.0877 70.8333 29.7544 70.2167 29.4877 69.45C29.221 68.6833 29.1044 68.0167 29.1377 67.45C29.2044 66.0833 29.7044 64.9 30.6377 63.9V63.85C30.1044 63.4833 29.6877 63.1 29.3877 62.7C29.121 62.3 28.9044 61.8167 28.7377 61.25H28.6877C28.621 61.25 28.521 61.3 28.3877 61.4C28.2877 61.4667 28.221 61.5 28.1877 61.5C28.121 61.5667 28.0044 61.6333 27.8377 61.7C27.7044 61.7333 27.621 61.7833 27.5877 61.85C27.9544 62.6167 28.0877 63.35 27.9877 64.05C27.8877 64.85 27.521 65.55 26.8877 66.15C26.2544 66.7167 25.4377 67.1167 24.4377 67.35C24.471 68.2833 24.1544 69.0833 23.4877 69.75C22.8544 70.4167 21.7544 70.7167 20.1877 70.65C19.621 70.6167 19.0544 70.45 18.4877 70.15C17.921 69.8167 17.5544 69.2667 17.3877 68.5C16.9877 68.6 16.621 68.6167 16.2877 68.55C15.9544 68.4833 15.671 68.4 15.4377 68.3C14.971 68.1 14.5877 67.7667 14.2877 67.3C14.021 66.8 13.8877 66.2333 13.8877 65.6C13.8877 65.3667 13.8877 65.15 13.8877 64.95C13.921 64.75 13.9544 64.5667 13.9877 64.4C13.621 64.3333 13.2377 64.2333 12.8377 64.1C12.471 63.9333 11.9544 63.5333 11.2877 62.9C10.9877 63.2667 10.7544 63.5 10.5877 63.6C10.4544 63.7 10.2877 63.7833 10.0877 63.85L10.7377 65.4C10.871 65.6667 10.9377 65.9167 10.9377 66.15C10.9377 66.3833 10.9377 66.65 10.9377 66.95C10.9377 67.45 10.8544 67.9167 10.6877 68.35C10.5544 68.75 10.3044 69.0833 9.9377 69.35V69.45C9.97103 69.45 10.021 69.5 10.0877 69.6C10.1544 69.7 10.221 69.75 10.2877 69.75C10.321 69.75 10.371 69.7833 10.4377 69.85L10.4877 69.9C11.3544 70.2667 11.9044 70.8167 12.1377 71.55C12.4044 72.25 12.521 73.0167 12.4877 73.85C12.4544 74.9167 12.221 75.8167 11.7877 76.55C11.3544 77.25 10.571 77.6167 9.4377 77.65ZM69.8607 78.75C69.6941 78.85 69.4774 78.9833 69.2107 79.15C68.9774 79.2833 68.7607 79.35 68.5607 79.35H66.9607C66.6941 79.35 66.4274 79.2833 66.1607 79.15C65.8941 78.9833 65.6607 78.85 65.4607 78.75C64.9607 78.3833 64.5441 77.9333 64.2107 77.4C63.9107 76.8667 63.7274 76.2833 63.6607 75.65V74.15C63.5941 74.15 63.4441 74.1667 63.2107 74.2C63.0107 74.2 62.8607 74.2 62.7607 74.2C62.3941 74.1667 62.0274 74.0333 61.6607 73.8C61.2941 73.5333 60.9774 73.3 60.7107 73.1C60.5774 73.3 60.4607 73.5333 60.3607 73.8C60.2941 74.0333 60.1941 74.25 60.0607 74.45C59.7941 74.9167 59.4274 75.2333 58.9607 75.4C58.4941 75.5667 58.0274 75.65 57.5607 75.65H57.0107H56.8107C56.7441 75.65 56.6941 75.65 56.6607 75.65C56.6274 75.6167 56.5941 75.6 56.5607 75.6C56.5274 75.6 56.3941 75.5667 56.1607 75.5C55.9607 75.4 55.8274 75.35 55.7607 75.35H55.7107C55.6441 76.2167 55.4441 76.9333 55.1107 77.5C54.7774 78.0667 54.2774 78.5833 53.6107 79.05C53.2441 79.3167 52.8941 79.55 52.5607 79.75C52.2607 79.95 51.8941 80.1 51.4607 80.2H49.2607C48.9941 80.1333 48.7441 80.05 48.5107 79.95C48.3107 79.8833 48.0941 79.8333 47.8607 79.8C47.6607 79.7333 47.4774 79.6667 47.3107 79.6C46.9441 79.4667 46.5774 79.3333 46.2107 79.2C45.8441 79.0333 45.4941 78.8167 45.1607 78.55C44.8941 78.3167 44.6107 77.9 44.3107 77.3C44.0107 76.6667 43.8607 76.15 43.8607 75.75V75.05C43.8607 73.9833 43.9941 73.0833 44.2607 72.35C44.5274 71.5833 45.0607 70.8667 45.8607 70.2C46.1607 69.9333 46.4774 69.7333 46.8107 69.6C47.1441 69.4667 47.4774 69.3667 47.8107 69.3V69.15C47.8107 69.0833 47.7607 68.9833 47.6607 68.85C47.5941 68.7167 47.5607 68.6333 47.5607 68.6C47.4941 68.4333 47.4607 68.3 47.4607 68.2C47.4941 68.0667 47.5107 67.9 47.5107 67.7C47.5107 67.1 47.6107 66.5167 47.8107 65.95C48.0441 65.35 48.4274 64.8833 48.9607 64.55C48.9941 64.55 49.0607 64.5333 49.1607 64.5C49.2941 64.4333 49.3774 64.3667 49.4107 64.3C49.4774 64.2667 49.5274 64.25 49.5607 64.25C49.6274 64.25 49.6941 64.2167 49.7607 64.15C49.4941 63.75 49.3107 63.3167 49.2107 62.85C49.1441 62.3833 49.1107 61.9167 49.1107 61.45V60.6C49.1107 60.3667 49.1607 60.1333 49.2607 59.9C49.3607 59.6667 49.4441 59.45 49.5107 59.25C49.5107 59.2167 49.5441 59.15 49.6107 59.05C49.7107 58.9167 49.7607 58.8167 49.7607 58.75C50.0274 58.3167 50.3441 57.9833 50.7107 57.75C51.2774 57.2167 51.9441 56.85 52.7107 56.65C53.4774 56.4167 54.2274 56.2333 54.9607 56.1V54.65C54.9607 54.35 55.0274 54.05 55.1607 53.75C55.2941 53.45 55.4441 53.1667 55.6107 52.9C56.5107 51.3 57.8607 50.5 59.6607 50.5C60.5274 50.5 61.2941 50.6833 61.9607 51.05C62.6274 51.4167 63.1607 51.9 63.5607 52.5C63.9607 53.0667 64.2274 53.7333 64.3607 54.5C64.4941 55.2667 64.4941 56.05 64.3607 56.85C65.1274 56.7833 65.7774 56.8167 66.3107 56.95C66.8441 57.05 67.3274 57.4333 67.7607 58.1C67.8274 58.1667 67.9441 58.4333 68.1107 58.9C68.3107 59.3333 68.2941 59.9167 68.0607 60.65C68.4941 60.75 68.8607 60.8667 69.1607 61C69.4607 61.1 69.7274 61.25 69.9607 61.45C70.2274 61.65 70.4607 61.9167 70.6607 62.25C70.8941 62.55 71.1441 62.95 71.4107 63.45C71.6774 63.9167 71.8107 64.4167 71.8107 64.95C71.8441 65.4833 71.7774 66.0333 71.6107 66.6C72.2441 66.6333 72.8107 66.7 73.3107 66.8C73.8107 66.9 74.3274 67.1167 74.8607 67.45C75.4607 67.85 75.8941 68.4 76.1607 69.1C76.4274 69.8 76.5607 70.4833 76.5607 71.15C76.5607 71.55 76.4607 71.9167 76.2607 72.25C76.0607 72.5833 75.8607 72.9167 75.6607 73.25V73.4C76.0607 73.7 76.4441 74.1 76.8107 74.6C77.2107 75.0667 77.4441 75.55 77.5107 76.05V77.7C77.3774 78.3 77.0941 78.85 76.6607 79.35C76.2607 79.85 75.7607 80.1833 75.1607 80.35C74.8274 80.4167 74.4941 80.4667 74.1607 80.5C73.8274 80.5 73.4941 80.5 73.1607 80.5H72.2607L72.0107 80.4L71.0607 79.95C70.7941 79.8167 70.5607 79.6333 70.3607 79.4C70.1941 79.1667 70.0274 78.95 69.8607 78.75ZM59.3107 65.95C59.3107 66.15 59.3441 66.3333 59.4107 66.5C59.4774 66.6333 59.7274 66.7 60.1607 66.7C60.5274 66.7 60.8107 66.6333 61.0107 66.5C61.2107 66.3333 61.4107 66.15 61.6107 65.95C61.7774 65.8167 61.8441 65.6833 61.8107 65.55C61.7774 65.4167 61.7607 65.3 61.7607 65.2C61.7607 64.7333 61.6441 64.35 61.4107 64.05C61.1774 63.7167 60.9107 63.3333 60.6107 62.9L60.1607 62.5C59.9941 62.6667 59.8941 62.8167 59.8607 62.95C59.8274 63.05 59.7607 63.2 59.6607 63.4C59.6607 63.5 59.6274 63.6667 59.5607 63.9C59.5274 64.1 59.4941 64.3167 59.4607 64.55C59.4274 64.7833 59.3941 65.0167 59.3607 65.25C59.3274 65.45 59.3107 65.5667 59.3107 65.6V65.95ZM92.4623 76.35C91.929 75.9833 91.6123 75.6167 91.5123 75.25C91.4456 74.85 91.4123 74.5167 91.4123 74.25C91.4123 73.85 91.4956 73.4333 91.6623 73C91.829 72.5667 91.9956 72.1833 92.1623 71.85C91.5956 71.3833 91.2123 70.9 91.0123 70.4C90.8123 69.8667 90.7123 69.3 90.7123 68.7C90.679 67.7333 90.779 66.9833 91.0123 66.45C91.279 65.8833 91.4956 65.4833 91.6623 65.25C91.2623 64.7833 90.9956 64.3667 90.8623 64C90.729 63.6 90.6623 63.0667 90.6623 62.4C90.6623 62.1 90.679 61.85 90.7123 61.65C90.7456 61.4167 90.779 61.1667 90.8123 60.9C90.3123 60.8667 89.7956 60.7833 89.2623 60.65C88.729 60.4833 88.279 60.2333 87.9123 59.9C87.6456 60.1667 87.3123 60.4167 86.9123 60.65C86.5456 60.85 86.1623 60.95 85.7623 60.95C84.7956 60.95 84.079 60.7833 83.6123 60.45C83.1456 60.1167 82.6623 59.55 82.1623 58.75C81.2623 58.6833 80.4956 58.3833 79.8623 57.85C79.229 57.2833 78.9123 56.5167 78.9123 55.55C78.9123 53.9167 79.7123 52.8167 81.3123 52.25C81.4123 51.6167 81.7456 51.0167 82.3123 50.45C82.879 49.8833 83.679 49.5833 84.7123 49.55C85.3123 49.55 85.7956 49.6 86.1623 49.7C86.529 49.7667 86.8123 49.8833 87.0123 50.05C87.2456 50.1833 87.429 50.3333 87.5623 50.5C87.6956 50.6667 87.829 50.8167 87.9623 50.95C88.129 50.7167 88.3623 50.45 88.6623 50.15C88.9623 49.85 89.529 49.6667 90.3623 49.6C91.129 49.5333 91.6956 49.65 92.0623 49.95C92.4623 50.25 92.7456 50.5167 92.9123 50.75C93.8456 49.75 94.979 49.25 96.3123 49.25C97.079 49.25 97.6956 49.4167 98.1623 49.75C98.629 50.0833 99.0623 50.5333 99.4623 51.1C99.9623 50.6 100.446 50.2 100.912 49.9C101.379 49.6 102.012 49.45 102.812 49.45C103.579 49.45 104.179 49.65 104.612 50.05C105.046 50.4167 105.446 50.8833 105.812 51.45C106.079 51.2833 106.396 51.15 106.762 51.05C107.129 50.9167 107.512 50.85 107.912 50.85C108.512 50.85 109.029 50.9833 109.462 51.25C109.929 51.5167 110.312 51.8667 110.612 52.3C110.912 52.7 111.129 53.1667 111.262 53.7C111.396 54.2 111.462 54.7 111.462 55.2C111.462 56.3 111.112 57.1 110.412 57.6C109.712 58.1 108.912 58.3833 108.012 58.45C107.746 58.4833 107.496 58.4667 107.262 58.4C107.062 58.3333 106.829 58.2667 106.562 58.2C106.562 58.3667 106.546 58.55 106.512 58.75C106.479 58.95 106.462 59.1833 106.462 59.45C106.429 59.75 106.362 60.0667 106.262 60.4C106.162 60.7333 105.996 61.05 105.762 61.35C105.562 61.6167 105.296 61.85 104.962 62.05C104.629 62.2167 104.229 62.3 103.762 62.3C103.396 62.3 103.029 62.2667 102.662 62.2C102.329 62.1 102.012 61.9833 101.712 61.85C101.712 62.1167 101.712 62.3333 101.712 62.5C101.746 62.6333 101.762 62.9167 101.762 63.35C101.762 64.1167 101.662 64.7167 101.462 65.15C101.296 65.55 101.012 66.0167 100.612 66.55C100.879 66.95 101.179 67.4333 101.512 68C101.879 68.5667 102.079 69.4167 102.112 70.55C102.112 71.1167 102.079 71.5833 102.012 71.95C101.979 72.3167 101.912 72.6167 101.812 72.85C101.712 73.0833 101.579 73.2833 101.412 73.45C101.279 73.5833 101.129 73.7167 100.962 73.85C101.429 74.4833 101.779 75.0667 102.012 75.6C102.279 76.1333 102.429 76.9 102.462 77.9C102.462 78.4 102.279 78.9333 101.912 79.5C101.546 80.0667 101.096 80.4167 100.562 80.55C100.396 80.55 100.129 80.5667 99.7623 80.6C99.429 80.6 99.0456 80.4333 98.6123 80.1C98.1456 80.8 97.6956 81.2667 97.2623 81.5C96.829 81.7667 96.2456 81.9 95.5123 81.9C95.1123 81.9 94.6956 81.8167 94.2623 81.65C93.8623 81.4833 93.479 81.2667 93.1123 81C92.779 80.7 92.4956 80.35 92.2623 79.95C92.0623 79.55 91.9623 79.1 91.9623 78.6C91.9623 78.0333 91.9956 77.5833 92.0623 77.25C92.1623 76.9167 92.2956 76.6167 92.4623 76.35ZM129.085 81.65C127.985 81.65 126.952 81.5 125.985 81.2C125.019 80.9333 124.102 80.2667 123.235 79.2H123.135C122.735 79.4 122.302 79.6167 121.835 79.85C121.369 80.0833 120.569 80.2333 119.435 80.3C117.902 80.3 116.619 79.8167 115.585 78.85C114.585 77.8833 114.085 76.5667 114.085 74.9C114.085 73.4667 114.469 72.2167 115.235 71.15V71.05C114.935 70.8167 114.669 70.55 114.435 70.25C114.235 69.95 114.135 69.6 114.135 69.2C114.135 68.7333 114.219 68.2667 114.385 67.8C114.585 67.3333 114.819 66.9167 115.085 66.55C115.085 66.4833 115.119 66.4167 115.185 66.35C115.252 66.25 115.285 66.1667 115.285 66.1L115.385 65.95V65.9L115.285 65.8C115.019 65.6333 114.769 65.4833 114.535 65.35C114.302 65.1833 114.102 64.9667 113.935 64.7L113.485 63.75C113.219 63.05 113.085 62.4 113.085 61.8C113.085 60.8 113.252 59.95 113.585 59.25C113.919 58.5167 114.435 57.8167 115.135 57.15L114.985 56.95C114.719 56.4833 114.485 56.0333 114.285 55.6C114.085 55.1667 113.985 54.6667 113.985 54.1C113.985 52.7 114.402 51.6667 115.235 51C116.102 50.3 117.169 49.9667 118.435 50C119.302 50.0333 120.019 50.1667 120.585 50.4C121.152 50.6 121.585 50.8167 121.885 51.05H121.985C122.352 50.6833 122.735 50.4 123.135 50.2C123.535 49.9667 124.019 49.85 124.585 49.85C125.219 49.85 125.769 49.9667 126.235 50.2C126.269 50.2 126.319 50.25 126.385 50.35C126.485 50.4167 126.569 50.45 126.635 50.45L126.785 50.5C127.352 49.8333 127.919 49.4167 128.485 49.25C129.052 49.05 129.769 48.95 130.635 48.95C132.002 48.95 133.085 49.4167 133.885 50.35C133.985 50.6167 134.135 50.8167 134.335 50.95C134.735 50.7833 135.152 50.65 135.585 50.55C136.052 50.4167 136.502 50.35 136.935 50.35C137.635 50.35 138.219 50.4833 138.685 50.75C139.152 51.0167 139.535 51.3667 139.835 51.8C140.135 52.2333 140.335 52.7333 140.435 53.3C140.569 53.8667 140.635 54.4667 140.635 55.1C140.635 56.2667 140.252 57.2167 139.485 57.95C138.719 58.6833 137.602 59.05 136.135 59.05C135.302 59.05 134.469 58.8167 133.635 58.35C133.202 58.8833 132.752 59.2167 132.285 59.35C131.852 59.4833 131.302 59.55 130.635 59.55C130.069 59.55 129.535 59.5 129.035 59.4C128.569 59.2667 128.085 59.1 127.585 58.9C127.319 59.2333 127.035 59.4833 126.735 59.65C126.435 59.7833 126.102 59.9 125.735 60C125.602 60 125.335 60.05 124.935 60.15C124.569 60.2167 124.302 60.25 124.135 60.25C124.102 60.25 123.985 60.2667 123.785 60.3C123.585 60.3 123.469 60.3 123.435 60.3C123.435 60.3667 123.452 60.5333 123.485 60.8C123.552 61.0667 123.585 61.2333 123.585 61.3V61.9C123.585 62.2333 123.552 62.5167 123.485 62.75C123.452 62.9833 123.385 63.2667 123.285 63.6C123.285 63.6667 123.252 63.7667 123.185 63.9C123.119 64.0333 123.085 64.1333 123.085 64.2V64.25C123.652 64.5833 124.052 64.9667 124.285 65.4C124.519 65.8 124.635 66.3333 124.635 67C124.635 67.3667 124.585 67.7167 124.485 68.05C124.419 68.35 124.252 68.65 123.985 68.95C123.952 69.0167 123.835 69.1833 123.635 69.45C123.469 69.6833 123.352 69.8333 123.285 69.9C123.852 70.1667 124.269 70.5833 124.535 71.15C124.802 71.6833 124.919 72.2333 124.885 72.8C125.185 72.5667 125.519 72.3833 125.885 72.25C126.252 72.0833 126.619 72 126.985 72C127.385 72 127.752 72.1 128.085 72.3C128.452 72.5 128.802 72.7333 129.135 73H129.235C129.602 72.3667 130.069 71.9667 130.635 71.8C131.202 71.6333 131.802 71.55 132.435 71.55C132.902 71.55 133.285 71.65 133.585 71.85C133.885 72.05 134.169 72.3167 134.435 72.65L134.835 73.2L134.935 73.25C135.369 72.8167 135.852 72.4833 136.385 72.25C136.952 71.9833 137.569 71.85 138.235 71.85C138.602 71.85 138.952 71.9667 139.285 72.2C139.619 72.4 139.919 72.6667 140.185 73C140.452 73.3333 140.669 73.7167 140.835 74.15C141.002 74.5833 141.085 75 141.085 75.4C141.085 75.9667 141.035 76.5333 140.935 77.1C140.835 77.6333 140.635 78.1167 140.335 78.55C140.069 78.95 139.685 79.3 139.185 79.6C138.685 79.8667 138.052 80.0167 137.285 80.05C136.885 80.0833 136.469 80.0333 136.035 79.9C135.635 79.7667 135.252 79.65 134.885 79.55L134.585 80.05C134.385 80.4167 134.052 80.7 133.585 80.9C133.152 81.1 132.669 81.25 132.135 81.35C131.602 81.4833 131.052 81.5667 130.485 81.6C129.952 81.6333 129.485 81.65 129.085 81.65ZM125.785 65.4C125.785 64.7333 126.002 64.2167 126.435 63.85C126.902 63.4833 127.469 63.3 128.135 63.3C128.635 63.3 129.035 63.4 129.335 63.6C129.635 63.7667 130.002 63.9333 130.435 64.1C131.269 63.3 132.235 62.9 133.335 62.9C133.635 62.9 133.952 62.9667 134.285 63.1C134.652 63.2 134.985 63.3667 135.285 63.6C135.585 63.8 135.835 64.0667 136.035 64.4C136.235 64.7 136.335 65.0667 136.335 65.5C136.335 66.2667 136.119 66.8833 135.685 67.35C135.285 67.7833 134.752 68.1167 134.085 68.35C133.452 68.5833 132.752 68.7333 131.985 68.8C131.252 68.8667 130.569 68.9 129.935 68.9C128.702 68.9 127.702 68.7 126.935 68.3C126.169 67.8667 125.785 66.9 125.785 65.4Z" fill="white"/>
<path d="M73.6086 31.55C72.7753 31.55 71.9419 31.4 71.1086 31.1C70.2753 30.7667 69.5086 30.3333 68.8086 29.8C68.4086 30.1667 68.0253 30.4167 67.6586 30.55C67.2919 30.6833 66.8253 30.75 66.2586 30.75C64.7919 30.75 63.4753 30.3 62.3086 29.4C61.1753 28.5 60.4753 27.2167 60.2086 25.55C59.6419 25.35 59.1086 25.0833 58.6086 24.75C58.1419 24.4167 57.7086 24.05 57.3086 23.65L57.2086 23.55C57.1753 23.5167 57.1586 23.4667 57.1586 23.4C56.7919 22.6 56.6086 21.8333 56.6086 21.1C56.6086 20.1333 56.7586 19.35 57.0586 18.75C57.3919 18.15 57.9753 17.5333 58.8086 16.9L58.7586 16.75C58.4253 16.1833 58.1253 15.6 57.8586 15C57.5919 14.3667 57.4586 13.7167 57.4586 13.05C57.4586 12.0833 57.8253 11.25 58.5586 10.55C59.3253 9.85 60.1919 9.45 61.1586 9.35C61.3253 8.71667 61.5419 8.1 61.8086 7.5C62.1086 6.86666 62.4586 6.3 62.8586 5.8C63.2919 5.3 63.7753 4.9 64.3086 4.6C64.8753 4.3 65.5086 4.15 66.2086 4.15C66.6419 4.15 67.0586 4.26667 67.4586 4.5C67.8586 4.7 68.4253 5.05 69.1586 5.55C69.6253 5.08333 70.1586 4.71667 70.7586 4.45C71.3919 4.15 72.0253 4 72.6586 4C73.2253 4 73.7586 4.11667 74.2586 4.35C74.7586 4.58333 75.1919 4.86666 75.5586 5.2C75.9586 5.53333 76.2753 5.9 76.5086 6.3C76.7419 6.7 76.8919 7.05 76.9586 7.35C77.3586 7.35 77.7753 7.41667 78.2086 7.55C78.6753 7.68333 79.0919 7.85 79.4586 8.05C79.7919 8.25 80.1419 8.51667 80.5086 8.85C80.8753 9.18333 81.2253 9.55 81.5586 9.95C81.8919 10.35 82.1586 10.7833 82.3586 11.25C82.5919 11.6833 82.7086 12.1 82.7086 12.5C82.7086 12.9667 82.5753 13.4167 82.3086 13.85C82.0419 14.25 81.7419 14.6167 81.4086 14.95C82.2753 15.6167 82.9419 16.35 83.4086 17.15C83.9086 17.9167 84.1586 18.8833 84.1586 20.05C84.1586 20.9167 83.9086 21.5667 83.4086 22C82.9419 22.4333 82.3086 22.7333 81.5086 22.9C81.5086 22.9667 81.6753 23.25 82.0086 23.75C82.3753 24.25 82.5586 24.9833 82.5586 25.95C82.5586 26.45 82.3919 26.9167 82.0586 27.35C81.7586 27.75 81.3586 28.1167 80.8586 28.45C80.3586 28.75 79.8086 28.9833 79.2086 29.15C78.6086 29.2833 78.0253 29.3167 77.4586 29.25C77.1919 30.0833 76.6753 30.6833 75.9086 31.05C75.1753 31.3833 74.4086 31.55 73.6086 31.55ZM69.8086 22.9C70.2753 23.4 70.7419 23.75 71.2086 23.95C71.6753 24.15 72.2753 24.25 73.0086 24.25C73.7419 24.25 74.4586 24.05 75.1586 23.65C75.8586 23.2167 76.2086 22.5667 76.2086 21.7C76.2086 21.5 76.1753 21.35 76.1086 21.25C76.0419 21.1167 75.8753 21.05 75.6086 21.05C75.4086 21.05 75.2753 21.1333 75.2086 21.3C75.1419 21.4333 75.0919 21.5833 75.0586 21.75C75.0253 21.8167 74.9919 21.9 74.9586 22C74.9586 22.0667 74.9253 22.1333 74.8586 22.2C74.6253 22.5 74.3419 22.7167 74.0086 22.85C73.6753 22.95 73.3419 23 73.0086 23C72.2419 23 71.6253 22.8333 71.1586 22.5C70.7253 22.1333 70.5086 21.5167 70.5086 20.65C70.5086 20.5833 70.5419 20.45 70.6086 20.25C70.6419 20.1833 70.7253 20.1 70.8586 20C71.0253 19.9 71.1086 19.8167 71.1086 19.75C71.1086 19.55 70.9586 19.35 70.6586 19.15C70.3919 18.95 70.1253 18.85 69.8586 18.85C69.2919 18.8833 68.8919 18.9833 68.6586 19.15C68.4586 19.2833 68.3586 19.4833 68.3586 19.75C68.3586 19.8167 68.4586 19.9 68.6586 20C68.8919 20.1 69.0253 20.1833 69.0586 20.25C69.1253 20.45 69.1586 20.5833 69.1586 20.65C69.1586 21.1833 69.0419 21.6333 68.8086 22C68.6086 22.3667 68.2086 22.5833 67.6086 22.65C67.1419 22.6833 66.7919 22.6833 66.5586 22.65C66.3253 22.5833 66.1419 22.5 66.0086 22.4C65.9086 22.2667 65.8086 22.1167 65.7086 21.95C65.6086 21.7833 65.4919 21.6 65.3586 21.4C65.1919 21.1667 64.9586 21.1333 64.6586 21.3C64.3586 21.4667 64.2086 21.65 64.2086 21.85C64.2086 21.9167 64.2086 22.0167 64.2086 22.15C64.2419 22.25 64.2919 22.3333 64.3586 22.4C64.4919 22.5667 64.6253 22.75 64.7586 22.95C64.9253 23.1167 65.1253 23.2667 65.3586 23.4C65.5919 23.5333 65.8753 23.6333 66.2086 23.7C66.5419 23.7667 66.9586 23.8 67.4586 23.8C67.8586 23.8 68.2753 23.7167 68.7086 23.55C69.1753 23.3833 69.5419 23.1667 69.8086 22.9ZM72.9586 15.65C72.9586 15.95 73.0753 16.1833 73.3086 16.35C73.5419 16.5167 73.7753 16.6 74.0086 16.6C74.2753 16.6 74.5253 16.4333 74.7586 16.1C75.0253 15.7333 75.0586 15.45 74.8586 15.25L74.7086 15.3C74.5086 14.9667 74.2586 14.8 73.9586 14.8C73.6919 14.8 73.4586 14.8833 73.2586 15.05C73.0586 15.1833 72.9586 15.3833 72.9586 15.65ZM65.2586 15.2C65.2586 15.4667 65.3253 15.6833 65.4586 15.85C65.5919 16.0167 65.7919 16.1 66.0586 16.1C66.3253 16.1 66.5253 16.0167 66.6586 15.85C66.7919 15.6833 66.8586 15.4667 66.8586 15.2C66.8586 14.9333 66.7419 14.75 66.5086 14.65C66.3086 14.5167 66.1419 14.45 66.0086 14.45H65.6086C65.3753 14.6167 65.2586 14.8667 65.2586 15.2Z" fill="#FFFB00"/>
</svg>
