<svg width="24" height="20" viewBox="0 0 24 20" fill="none" xmlns="http://www.w3.org/2000/svg">
<path d="M1.5 7H22.5M20.625 18.25H3.375C2.87772 18.25 2.40081 18.0525 2.04917 17.7008C1.69754 17.3492 1.5 16.8723 1.5 16.375V3.625C1.5 3.12772 1.69754 2.65081 2.04917 2.29917C2.40081 1.94754 2.87772 1.75 3.375 1.75H6.93234C7.30256 1.75001 7.66448 1.85961 7.9725 2.065L9.2775 2.935C9.58552 3.14039 9.94744 3.24999 10.3177 3.25H20.625C21.1223 3.25 21.5992 3.44754 21.9508 3.79917C22.3025 4.15081 22.5 4.62772 22.5 5.125V16.375C22.5 16.8723 22.3025 17.3492 21.9508 17.7008C21.5992 18.0525 21.1223 18.25 20.625 18.25Z" stroke="#212121" stroke-width="1.75" stroke-linecap="round" stroke-linejoin="round"/>
</svg>
