<svg width="18" height="18" viewBox="0 0 18 18" fill="none" xmlns="http://www.w3.org/2000/svg">
<g clip-path="url(#clip0_310_3859)">
<path d="M8.46675 17.4653V15.2512C8.46675 15.1094 8.52309 14.9734 8.62337 14.8731C8.72366 14.7728 8.85968 14.7165 9.0015 14.7165C9.14332 14.7165 9.27934 14.7728 9.37963 14.8731C9.47991 14.9734 9.53625 15.1094 9.53625 15.2512V17.4653C9.53625 17.6071 9.47991 17.7431 9.37963 17.8434C9.27934 17.9437 9.14332 18 9.0015 18C8.85968 18 8.72366 17.9437 8.62337 17.8434C8.52309 17.7431 8.46675 17.6071 8.46675 17.4653ZM14.6093 15.3622L13.044 13.7977C12.9922 13.7486 12.9508 13.6896 12.9223 13.6242C12.8937 13.5587 12.8785 13.4883 12.8776 13.4169C12.8766 13.3455 12.89 13.2747 12.9169 13.2086C12.9438 13.1424 12.9837 13.0824 13.0341 13.0319C13.0846 12.9814 13.1447 12.9416 13.2108 12.9147C13.2769 12.8878 13.3478 12.8744 13.4191 12.8753C13.4905 12.8762 13.561 12.8914 13.6264 12.92C13.6918 12.9486 13.7508 12.99 13.8 13.0417L15.3638 14.6085C15.4514 14.7111 15.497 14.843 15.4915 14.9777C15.486 15.1125 15.4297 15.2402 15.334 15.3353C15.2383 15.4303 15.1102 15.4857 14.9753 15.4903C14.8405 15.4949 14.709 15.4483 14.607 15.36L14.6077 15.3608L14.6093 15.3622ZM2.63775 15.3622C2.58786 15.3127 2.54827 15.2539 2.52125 15.189C2.49422 15.1241 2.48031 15.0545 2.48031 14.9843C2.48031 14.914 2.49422 14.8444 2.52125 14.7795C2.54827 14.7146 2.58786 14.6558 2.63775 14.6063L4.203 13.041C4.25216 12.9892 4.31118 12.9478 4.37659 12.9193C4.442 12.8907 4.51247 12.8755 4.58385 12.8746C4.65523 12.8736 4.72607 12.887 4.79219 12.9139C4.85831 12.9408 4.91839 12.9807 4.96886 13.0311C5.01934 13.0816 5.0592 13.1417 5.08609 13.2078C5.11298 13.2739 5.12636 13.3448 5.12544 13.4161C5.12452 13.4875 5.10932 13.558 5.08074 13.6234C5.05215 13.6888 5.01076 13.7478 4.959 13.797L3.39375 15.3615C3.34425 15.4114 3.28536 15.451 3.22049 15.478C3.15561 15.505 3.08603 15.5189 3.01575 15.5189C2.94547 15.5189 2.87589 15.505 2.81101 15.478C2.74614 15.451 2.68725 15.4121 2.63775 15.3622ZM4.74 8.9985C4.74 7.86808 5.18906 6.78396 5.98838 5.98463C6.78771 5.18531 7.87183 4.73625 9.00225 4.73625C10.1327 4.73625 11.2168 5.18531 12.0161 5.98463C12.8154 6.78396 13.2645 7.86808 13.2645 8.9985C13.2645 10.1289 12.8154 11.213 12.0161 12.0124C11.2168 12.8117 10.1327 13.2607 9.00225 13.2607C7.87183 13.2607 6.78771 12.8117 5.98838 12.0124C5.18906 11.213 4.74 10.1289 4.74 8.9985ZM5.80875 8.9985C5.79953 9.4238 5.87534 9.84666 6.03173 10.2423C6.18811 10.6379 6.42192 10.9983 6.71945 11.3023C7.01698 11.6064 7.37222 11.8479 7.76435 12.0129C8.15648 12.1778 8.5776 12.2627 9.003 12.2627C9.4284 12.2627 9.84951 12.1778 10.2416 12.0129C10.6338 11.8479 10.989 11.6064 11.2865 11.3023C11.5841 10.9983 11.8179 10.6379 11.9743 10.2423C12.1307 9.84666 12.2065 9.4238 12.1973 8.9985C12.1792 8.16332 11.8347 7.36844 11.2376 6.78417C10.6405 6.19991 9.83838 5.87272 9.003 5.87272C8.16762 5.87272 7.36547 6.19991 6.7684 6.78417C6.17134 7.36844 5.82685 8.16332 5.80875 8.9985ZM15.252 9.53325C15.1818 9.53325 15.1122 9.51942 15.0474 9.49254C14.9825 9.46567 14.9235 9.42628 14.8739 9.37663C14.8242 9.32697 14.7848 9.26802 14.758 9.20314C14.7311 9.13826 14.7172 9.06872 14.7172 8.9985C14.7172 8.92828 14.7311 8.85874 14.758 8.79386C14.7848 8.72898 14.8242 8.67003 14.8739 8.62037C14.9235 8.57072 14.9825 8.53133 15.0474 8.50446C15.1122 8.47758 15.1818 8.46375 15.252 8.46375H17.466C17.5362 8.46375 17.6058 8.47758 17.6706 8.50446C17.7355 8.53133 17.7945 8.57072 17.8441 8.62037C17.8938 8.67003 17.9332 8.72898 17.96 8.79386C17.9869 8.85874 18.0007 8.92828 18.0007 8.9985C18.0007 9.06872 17.9869 9.13826 17.96 9.20314C17.9332 9.26802 17.8938 9.32697 17.8441 9.37663C17.7945 9.42628 17.7355 9.46567 17.6706 9.49254C17.6058 9.51942 17.5362 9.53325 17.466 9.53325H15.252ZM0.53475 9.53325C0.464526 9.53325 0.394989 9.51942 0.33011 9.49254C0.265231 9.46567 0.206281 9.42628 0.156625 9.37663C0.106969 9.32697 0.0675791 9.26802 0.0407054 9.20314C0.0138317 9.13826 0 9.06872 0 8.9985C0 8.92828 0.0138317 8.85874 0.0407054 8.79386C0.0675791 8.72898 0.106969 8.67003 0.156625 8.62037C0.206281 8.57072 0.265231 8.53133 0.33011 8.50446C0.394989 8.47758 0.464526 8.46375 0.53475 8.46375H2.7495C2.81972 8.46375 2.88926 8.47758 2.95414 8.50446C3.01902 8.53133 3.07797 8.57072 3.12763 8.62037C3.17728 8.67003 3.21667 8.72898 3.24354 8.79386C3.27042 8.85874 3.28425 8.92828 3.28425 8.9985C3.28425 9.06872 3.27042 9.13826 3.24354 9.20314C3.21667 9.26802 3.17728 9.32697 3.12763 9.37663C3.07797 9.42628 3.01902 9.46567 2.95414 9.49254C2.88926 9.51942 2.81972 9.53325 2.7495 9.53325H0.53475ZM13.0425 4.956C12.9926 4.9065 12.953 4.84761 12.926 4.78274C12.899 4.71786 12.8851 4.64828 12.8851 4.578C12.8851 4.50772 12.899 4.43814 12.926 4.37326C12.953 4.30839 12.9926 4.2495 13.0425 4.2L14.6077 2.63475C14.6569 2.58299 14.7159 2.5416 14.7813 2.51301C14.8468 2.48443 14.9172 2.46923 14.9886 2.46831C15.06 2.46739 15.1308 2.48077 15.1969 2.50766C15.2631 2.53455 15.3231 2.57441 15.3736 2.62489C15.4241 2.67536 15.4639 2.73544 15.4908 2.80156C15.5177 2.86768 15.5311 2.93852 15.5302 3.0099C15.5293 3.08128 15.5141 3.15175 15.4855 3.21716C15.4569 3.28257 15.4155 3.34159 15.3638 3.39075L13.7985 4.956C13.749 5.00589 13.6901 5.04548 13.6252 5.0725C13.5604 5.09953 13.4908 5.11344 13.4205 5.11344C13.3502 5.11344 13.2806 5.09953 13.2158 5.0725C13.1509 5.04548 13.092 5.00589 13.0425 4.956ZM4.2015 4.956L2.63775 3.39225C2.58599 3.34309 2.5446 3.28407 2.51601 3.21866C2.48743 3.15325 2.47223 3.08278 2.47131 3.0114C2.47039 2.94002 2.48377 2.86918 2.51066 2.80306C2.53755 2.73694 2.57741 2.67686 2.62789 2.62639C2.67836 2.57591 2.73844 2.53605 2.80456 2.50916C2.87068 2.48227 2.94152 2.46889 3.0129 2.46981C3.08428 2.47073 3.15475 2.48593 3.22016 2.51451C3.28557 2.5431 3.34459 2.58449 3.39375 2.63625L4.959 4.2015C5.01076 4.25066 5.05215 4.30968 5.08074 4.37509C5.10932 4.4405 5.12452 4.51097 5.12544 4.58235C5.12636 4.65373 5.11298 4.72457 5.08609 4.79069C5.0592 4.85681 5.01934 4.91689 4.96886 4.96736C4.91839 5.01784 4.85831 5.05769 4.79219 5.08459C4.72607 5.11148 4.65523 5.12486 4.58385 5.12394C4.51247 5.12302 4.442 5.10782 4.37659 5.07924C4.31118 5.05065 4.25216 5.00926 4.203 4.9575L4.2015 4.956ZM8.46525 2.748V0.53475C8.46525 0.392925 8.52159 0.25691 8.62187 0.156625C8.72216 0.0563396 8.85818 0 9 0C9.14182 0 9.27784 0.0563396 9.37813 0.156625C9.47841 0.25691 9.53475 0.392925 9.53475 0.53475V2.74875C9.53475 2.89057 9.47841 3.02659 9.37813 3.12688C9.27784 3.22716 9.14182 3.2835 9 3.2835C8.85818 3.2835 8.72216 3.22716 8.62187 3.12688C8.52159 3.02659 8.46525 2.88982 8.46525 2.748Z" fill="#222222"/>
</g>
<defs>
<clipPath id="clip0_310_3859">
<rect width="18" height="18" fill="white"/>
</clipPath>
</defs>
</svg>
